<svg xmlns="http://www.w3.org/2000/svg" version="1.1" xmlns:xlink="http://www.w3.org/1999/xlink" width="512" height="512" x="0" y="0" viewBox="0 0 20 20" style="enable-background:new 0 0 512 512" xml:space="preserve" class=""><g><g fill="#000" fill-rule="evenodd" clip-rule="evenodd"><path d="M9.383 3.076A1 1 0 0 1 10 4v12a1 1 0 0 1-1.707.707L4.586 13H2a1 1 0 0 1-1-1V8a1 1 0 0 1 1-1h2.586l3.707-3.707a1 1 0 0 1 1.09-.217zM12.293 7.293a1 1 0 0 1 1.414 0L15 8.586l1.293-1.293a1 1 0 1 1 1.414 1.414L16.414 10l1.293 1.293a1 1 0 0 1-1.414 1.414L15 11.414l-1.293 1.293a1 1 0 0 1-1.414-1.414L13.586 10l-1.293-1.293a1 1 0 0 1 0-1.414z" opacity="1" data-original="#000000" class=""></path></g></g></svg>