<svg width="512" height="432" viewBox="0 0 512 432" fill="none" xmlns="http://www.w3.org/2000/svg">
<path d="M308.97 74.5147C332.643 89.3578 349.244 114.475 352.266 143.631C362.193 148.301 373.026 150.727 383.997 150.736C425.472 150.736 459.088 117.121 459.088 75.6521C459.088 34.1771 425.472 0.561279 383.997 0.561279C342.918 0.574059 309.596 33.5892 308.97 74.5147ZM259.776 228.262C301.251 228.262 334.867 194.64 334.867 153.171C334.867 111.702 301.245 78.0865 259.776 78.0865C218.308 78.0865 184.673 111.709 184.673 153.177C184.673 194.646 218.308 228.262 259.776 228.262ZM291.629 233.38H227.911C174.897 233.38 131.767 276.516 131.767 329.531V407.452L131.965 408.673L137.332 410.353C187.925 426.161 231.879 431.432 268.057 431.432C338.72 431.432 379.677 411.286 382.201 410.002L387.217 407.465H387.754V329.531C387.773 276.516 344.643 233.38 291.629 233.38ZM415.862 155.861H352.637C351.994 180.274 341.728 203.444 324.075 220.319C371.198 234.332 405.677 278.03 405.677 329.646V353.658C468.103 351.37 504.077 333.678 506.447 332.489L511.463 329.946H512V251.999C512 198.991 468.87 155.861 415.862 155.861ZM128.016 150.749C142.706 150.749 156.373 146.462 167.951 139.158C171.584 115.66 184.085 94.4487 202.883 79.8884C202.96 78.4827 203.094 77.0897 203.094 75.6712C203.094 34.1962 169.472 0.580447 128.016 0.580447C86.5346 0.580447 52.9252 34.1962 52.9252 75.6712C52.9252 117.127 86.5346 150.749 128.016 150.749ZM195.452 220.319C177.897 203.524 167.646 180.503 166.91 156.219C164.565 156.046 162.245 155.861 159.855 155.861H96.1446C43.1299 155.861 0 198.991 0 251.999V329.933L0.198078 331.134L5.56536 332.828C46.1522 345.498 82.3749 351.338 113.837 353.179V329.646C113.85 278.03 148.316 234.345 195.452 220.319Z" fill="black"/>
</svg>
